<?xml version="1.0" standalone="no"?>
<!DOCTYPE svg PUBLIC "-//W3C//DTD SVG 20010904//EN"
 "http://www.w3.org/TR/2001/REC-SVG-20010904/DTD/svg10.dtd">
<svg version="1.0" xmlns="http://www.w3.org/2000/svg"
 width="102.000000pt" height="102.000000pt" viewBox="0 0 102.000000 102.000000"
 preserveAspectRatio="xMidYMid meet">
<metadata>
Created by potrace 1.14, written by Peter Selinger 2001-2017
</metadata>
<g transform="translate(0.000000,102.000000) scale(0.100000,-0.100000)"
fill="#000000" stroke="none">
<path d="M410 862 c-82 -28 -93 -36 -125 -94 -26 -45 -30 -64 -30 -128 0 -50
6 -91 19 -123 10 -26 20 -46 22 -44 2 2 6 25 9 52 14 113 79 184 205 223 84
26 230 14 287 -24 42 -27 36 -9 -14 41 -96 98 -251 138 -373 97z"/>
<path d="M632 681 c56 -36 84 -74 101 -141 29 -111 -16 -244 -115 -343 -32
-32 -58 -60 -58 -62 0 -8 87 18 128 40 116 59 202 191 202 307 0 66 -53 143
-130 190 -30 18 -108 38 -146 38 -26 0 -25 -2 18 -29z"/>
<path d="M475 671 c-79 -19 -129 -84 -128 -167 2 -158 185 -228 295 -113 115
121 -3 319 -167 280z m-18 -38 c-14 -33 -25 -43 -50 -43 -26 0 -16 21 23 48
42 28 42 28 27 -5z m53 -6 c0 -25 -4 -33 -20 -34 -28 -2 -34 14 -16 42 23 34
36 31 36 -8z m49 7 c27 -35 26 -40 -6 -39 -24 0 -28 5 -30 33 -3 39 9 41 36 6z
m71 -19 c7 -8 10 -18 7 -21 -12 -12 -48 9 -63 37 l-15 30 29 -15 c16 -8 34
-22 42 -31z m-199 -67 c-6 -29 -11 -33 -39 -34 -24 -1 -32 3 -32 17 0 36 12
49 45 49 31 0 32 -1 26 -32z m79 -3 c0 -32 -2 -35 -29 -35 -35 0 -45 12 -37
46 5 19 13 24 36 24 28 0 30 -3 30 -35z m80 -1 c0 -34 -1 -35 -32 -32 -29 3
-33 7 -35 36 -1 30 1 32 33 32 32 0 34 -2 34 -36z m77 14 c14 -33 6 -48 -27
-48 -28 0 -40 15 -40 51 0 29 54 26 67 -3z m-237 -93 c0 -32 -3 -35 -29 -35
-29 0 -41 14 -41 51 0 15 7 19 35 19 33 0 35 -2 35 -35z m80 0 c0 -32 -3 -35
-29 -35 -29 0 -41 14 -41 51 0 15 7 19 35 19 33 0 35 -2 35 -35z m78 3 c-3
-29 -6 -33 -33 -33 -26 0 -30 4 -32 33 -3 31 -1 32 33 32 34 0 35 -1 32 -32z
m85 26 c3 -3 1 -19 -5 -35 -8 -23 -16 -29 -39 -29 -25 0 -29 4 -29 28 0 16 3
32 7 35 8 9 58 9 66 1z m-220 -109 l17 -36 -22 12 c-30 15 -58 40 -58 51 0 4
10 8 23 8 17 0 28 -10 40 -35z m57 -1 c0 -43 -17 -42 -43 4 l-19 32 31 0 c29
0 31 -2 31 -36z m70 27 c0 -13 -40 -61 -51 -61 -5 0 -9 16 -7 35 2 31 5 35 30
35 15 0 28 -4 28 -9z m36 -26 c-45 -40 -54 -39 -36 5 10 24 18 30 44 30 l31
-1 -39 -34z"/>
<path d="M159 619 c-21 -70 -16 -185 10 -251 26 -67 104 -158 158 -183 44 -21
120 -16 186 13 43 19 118 86 138 123 8 16 2 15 -43 -6 -58 -27 -131 -32 -185
-12 -114 42 -221 184 -237 313 -7 51 -13 52 -27 3z"/>
</g>
</svg>
